<svg id="icons" enable-background="new 0 0 64 64" height="512" viewBox="0 0 64 64" width="512" xmlns="http://www.w3.org/2000/svg"><g><path d="m10 53.5.001 7.998c0 .553.448 1 1 1 .553 0 1-.448 1-1l-.001-7.998c0-2.784 1.639-5.188 3.999-6.314v14.314c0 .553.447 1 1 1s1-.447 1-1v-14.92c.328-.047.66-.08 1.001-.08l3.999.001v1.995c0 4.963 4.037 9.001 9 9.001s9-4.038 9-9.001v-1.996l4.001.001c.341 0 .674.033 1.002.08v14.919c0 .553.447 1 1 1s1-.447 1-1v-14.312c2.359 1.126 3.998 3.529 3.998 6.313v7.997c0 .553.447 1 1 1s1-.447 1-1v-7.997c0-4.132-2.802-7.613-6.604-8.666-.014-.006-.029-.006-.043-.011-.752-.205-1.538-.323-2.354-.323l-4.999-.002c-.001 0-.001 0-.001 0v-4.164c4.773-2.771 7.999-7.928 7.999-13.834v-3.001c.553 0 1-.447 1-1v-4c0-.553-.447-1-1-1v-2.998c0-4.072-3.06-7.436-7-7.931v-4.071c0-.553-.447-1-1-1h-10c-7.72 0-14 6.28-14 14v2c-.553 0-1 .447-1 1v4c0 .553.447 1 1 1v3.001c0 5.906 3.226 11.063 8 13.835v3.164c0 .002.001.003.001.005v.996l-4.999-.001c-4.963 0-9 4.037-9 9zm21.999 1.997c-3.859 0-7-3.141-7-7.001v-1.995h.001c.553 0 1-.447 1-1v-4.178c1.854.754 3.877 1.178 5.999 1.178s4.146-.425 6-1.178v2.177c0 .002.001.003.001.005v1.994c0 .553.447.999.999 1v1.997c0 3.86-3.141 7.001-7 7.001zm-15-33.997v-2h30v2zm1-6c0-6.617 5.383-12 12-12h9v4.002c0 .553.447 1 1 1 3.309 0 6 2.691 6 6v2.998h-28zm0 11.001v-3.001h28v3.001c0 7.72-6.28 14-14 14s-14-6.28-14-14z"/></g></svg>